<mxfile host="Electron" modified="2024-10-18T15:41:33.626Z" agent="Mozilla/5.0 (Windows NT 10.0; Win64; x64) AppleWebKit/537.36 (KHTML, like Gecko) draw.io/22.0.3 Chrome/114.0.5735.289 Electron/25.8.4 Safari/537.36" etag="1ZV-QseeTJIZNx5W_rfA" version="22.0.3" type="device">
  <diagram name="Страница — 1" id="E_k9aIjNu1JIsz-lrTwM">
    <mxGraphModel dx="1646" dy="505" grid="1" gridSize="10" guides="1" tooltips="1" connect="1" arrows="1" fold="1" page="1" pageScale="1" pageWidth="827" pageHeight="1169" math="0" shadow="0">
      <root>
        <mxCell id="0" />
        <mxCell id="1" parent="0" />
        <mxCell id="4KBvr8sLMSTVqSEOLDnu-1" value="&lt;font style=&quot;font-size: 7px;&quot;&gt;Пользователь передумал запрашивать отчёт&lt;/font&gt;" style="shape=note;whiteSpace=wrap;html=1;backgroundOutline=1;darkOpacity=0.05;strokeColor=default;align=center;verticalAlign=middle;fontFamily=Helvetica;fontSize=12;fontColor=default;fillColor=default;size=10;" parent="1" vertex="1">
          <mxGeometry x="-510" y="190" width="120" height="40" as="geometry" />
        </mxCell>
        <mxCell id="4KBvr8sLMSTVqSEOLDnu-2" value="" style="endArrow=none;dashed=1;html=1;rounded=0;fontFamily=Helvetica;fontSize=12;fontColor=default;entryX=0.5;entryY=1;entryDx=0;entryDy=0;entryPerimeter=0;" parent="1" target="4KBvr8sLMSTVqSEOLDnu-1" edge="1">
          <mxGeometry width="50" height="50" relative="1" as="geometry">
            <mxPoint x="-380" y="260" as="sourcePoint" />
            <mxPoint x="-470" y="280" as="targetPoint" />
          </mxGeometry>
        </mxCell>
        <mxCell id="4KBvr8sLMSTVqSEOLDnu-3" value="&lt;div style=&quot;text-align: justify;&quot;&gt;&lt;span style=&quot;font-size: 7px; background-color: initial;&quot;&gt;Trigger: Пользователь запросил отчёт&amp;nbsp;&lt;br&gt;Condition: У пользователя должны быть рекламные контракты&lt;/span&gt;&lt;/div&gt;" style="shape=note;whiteSpace=wrap;html=1;backgroundOutline=1;darkOpacity=0.05;strokeColor=default;align=center;verticalAlign=middle;fontFamily=Helvetica;fontSize=12;fontColor=default;fillColor=default;size=10;" parent="1" vertex="1">
          <mxGeometry x="-160" y="150" width="120" height="70" as="geometry" />
        </mxCell>
        <mxCell id="4KBvr8sLMSTVqSEOLDnu-4" value="" style="endArrow=none;dashed=1;html=1;rounded=0;fontFamily=Helvetica;fontSize=12;fontColor=default;entryX=0.5;entryY=1;entryDx=0;entryDy=0;entryPerimeter=0;" parent="1" target="4KBvr8sLMSTVqSEOLDnu-3" edge="1">
          <mxGeometry width="50" height="50" relative="1" as="geometry">
            <mxPoint x="-120" y="260" as="sourcePoint" />
            <mxPoint x="-200" y="193" as="targetPoint" />
          </mxGeometry>
        </mxCell>
        <mxCell id="4KBvr8sLMSTVqSEOLDnu-5" value="&lt;span style=&quot;font-size: 7px;&quot;&gt;Пользователь отменил&amp;nbsp; создание&amp;nbsp;&lt;/span&gt;" style="shape=note;whiteSpace=wrap;html=1;backgroundOutline=1;darkOpacity=0.05;strokeColor=default;align=center;verticalAlign=middle;fontFamily=Helvetica;fontSize=12;fontColor=default;fillColor=default;size=10;" parent="1" vertex="1">
          <mxGeometry x="-310" y="320" width="120" height="40" as="geometry" />
        </mxCell>
        <mxCell id="4KBvr8sLMSTVqSEOLDnu-6" value="" style="endArrow=none;dashed=1;html=1;rounded=0;fontFamily=Helvetica;fontSize=12;fontColor=default;entryX=0.5;entryY=1;entryDx=0;entryDy=0;entryPerimeter=0;" parent="1" target="4KBvr8sLMSTVqSEOLDnu-5" edge="1">
          <mxGeometry width="50" height="50" relative="1" as="geometry">
            <mxPoint x="-250" y="380" as="sourcePoint" />
            <mxPoint x="-300" y="350" as="targetPoint" />
          </mxGeometry>
        </mxCell>
        <mxCell id="4KBvr8sLMSTVqSEOLDnu-7" value="&lt;div style=&quot;text-align: justify;&quot;&gt;&lt;span style=&quot;font-size: 7px; background-color: initial;&quot;&gt;Trigger:Пользователь ожидает&lt;/span&gt;&lt;/div&gt;&lt;font style=&quot;font-size: 7px;&quot;&gt;&lt;div style=&quot;text-align: justify;&quot;&gt;&lt;span style=&quot;background-color: initial;&quot;&gt;Condition: Процесс создания не был отменён&lt;/span&gt;&lt;/div&gt;&lt;/font&gt;" style="shape=note;whiteSpace=wrap;html=1;backgroundOutline=1;darkOpacity=0.05;strokeColor=default;align=center;verticalAlign=middle;fontFamily=Helvetica;fontSize=12;fontColor=default;fillColor=default;size=10;" parent="1" vertex="1">
          <mxGeometry x="-20" y="240" width="120" height="40" as="geometry" />
        </mxCell>
        <mxCell id="4KBvr8sLMSTVqSEOLDnu-8" value="" style="endArrow=none;dashed=1;html=1;rounded=0;fontFamily=Helvetica;fontSize=12;fontColor=default;entryX=0.5;entryY=1;entryDx=0;entryDy=0;entryPerimeter=0;" parent="1" target="4KBvr8sLMSTVqSEOLDnu-7" edge="1">
          <mxGeometry width="50" height="50" relative="1" as="geometry">
            <mxPoint x="20" y="340" as="sourcePoint" />
            <mxPoint x="-60" y="273" as="targetPoint" />
          </mxGeometry>
        </mxCell>
        <mxCell id="4KBvr8sLMSTVqSEOLDnu-11" value="" style="ellipse;html=1;shape=endState;fillColor=#000000;strokeColor=#ff0000;align=center;verticalAlign=middle;fontFamily=Helvetica;fontSize=12;fontColor=default;" parent="1" vertex="1">
          <mxGeometry x="-190" y="520" width="40" height="40" as="geometry" />
        </mxCell>
        <mxCell id="4KBvr8sLMSTVqSEOLDnu-12" value="" style="ellipse;html=1;shape=startState;fillColor=#000000;strokeColor=#ff0000;align=center;verticalAlign=middle;fontFamily=Helvetica;fontSize=12;fontColor=default;" parent="1" vertex="1">
          <mxGeometry x="-350" y="180" width="40" height="40" as="geometry" />
        </mxCell>
        <mxCell id="4KBvr8sLMSTVqSEOLDnu-13" value="&lt;div style=&quot;&quot;&gt;&lt;span style=&quot;font-size: 7px; background-color: initial;&quot;&gt;Отменено&lt;/span&gt;&lt;/div&gt;&lt;font style=&quot;font-size: 7px;&quot;&gt;&lt;div style=&quot;text-align: justify;&quot;&gt;&lt;span style=&quot;background-color: initial;&quot;&gt;Exit: Уведомление об отмене действия&lt;/span&gt;&lt;/div&gt;&lt;/font&gt;" style="rounded=1;whiteSpace=wrap;html=1;arcSize=40;fontColor=#000000;fillColor=#ffffc0;strokeColor=#ff0000;align=center;verticalAlign=middle;fontFamily=Helvetica;fontSize=12;" parent="1" vertex="1">
          <mxGeometry x="-440" y="310" width="120" height="60" as="geometry" />
        </mxCell>
        <mxCell id="4KBvr8sLMSTVqSEOLDnu-14" value="" style="edgeStyle=orthogonalEdgeStyle;html=1;verticalAlign=bottom;endArrow=open;endSize=8;strokeColor=#ff0000;rounded=0;fontFamily=Helvetica;fontSize=12;fontColor=default;exitX=0;exitY=0.5;exitDx=0;exitDy=0;entryX=0.5;entryY=0;entryDx=0;entryDy=0;" parent="1" source="4KBvr8sLMSTVqSEOLDnu-15" target="4KBvr8sLMSTVqSEOLDnu-13" edge="1">
          <mxGeometry relative="1" as="geometry">
            <mxPoint x="-540" y="420" as="targetPoint" />
          </mxGeometry>
        </mxCell>
        <mxCell id="4KBvr8sLMSTVqSEOLDnu-15" value="Отсутствие" style="rounded=1;whiteSpace=wrap;html=1;arcSize=40;fontColor=#000000;fillColor=#ffffc0;strokeColor=#ff0000;align=center;verticalAlign=middle;fontFamily=Helvetica;fontSize=12;" parent="1" vertex="1">
          <mxGeometry x="-310" y="240" width="120" height="40" as="geometry" />
        </mxCell>
        <mxCell id="4KBvr8sLMSTVqSEOLDnu-16" value="&lt;font style=&quot;font-size: 7px;&quot;&gt;В процессе создания&lt;br&gt;&lt;/font&gt;&lt;div style=&quot;text-align: justify; font-size: 7px;&quot;&gt;&lt;span style=&quot;background-color: initial;&quot;&gt;&lt;font style=&quot;font-size: 7px;&quot;&gt;entry: Открывается окно с рекламными контрактами&lt;/font&gt;&lt;/span&gt;&lt;/div&gt;&lt;div style=&quot;text-align: justify; font-size: 7px;&quot;&gt;&lt;span style=&quot;background-color: initial;&quot;&gt;&lt;font style=&quot;font-size: 7px;&quot;&gt;do: Собирается статистика в течении определённого срока и записывается в файл&lt;/font&gt;&lt;/span&gt;&lt;/div&gt;&lt;div style=&quot;text-align: justify; font-size: 7px;&quot;&gt;&lt;span style=&quot;background-color: initial;&quot;&gt;&lt;font style=&quot;font-size: 7px;&quot;&gt;exit: Если нет рекламных контрактов, то уведомить об этом&lt;/font&gt;&lt;/span&gt;&lt;/div&gt;" style="rounded=1;whiteSpace=wrap;html=1;arcSize=40;fontColor=#000000;fillColor=#ffffc0;strokeColor=#ff0000;align=center;verticalAlign=middle;fontFamily=Helvetica;fontSize=12;" parent="1" vertex="1">
          <mxGeometry x="-180" y="280" width="120" height="80" as="geometry" />
        </mxCell>
        <mxCell id="4KBvr8sLMSTVqSEOLDnu-17" value="&lt;div style=&quot;font-size: 7px;&quot;&gt;&lt;span style=&quot;background-color: initial;&quot;&gt;&lt;font style=&quot;font-size: 7px;&quot;&gt;Отчёт успешно создан&lt;/font&gt;&lt;/span&gt;&lt;/div&gt;&lt;div style=&quot;text-align: justify; font-size: 7px;&quot;&gt;&lt;span style=&quot;background-color: initial;&quot;&gt;&lt;font style=&quot;font-size: 7px;&quot;&gt;entry: Открывается окно для скачивания отчёта&lt;/font&gt;&lt;/span&gt;&lt;/div&gt;&lt;div style=&quot;text-align: justify; font-size: 7px;&quot;&gt;&lt;span style=&quot;background-color: initial;&quot;&gt;&lt;font style=&quot;font-size: 7px;&quot;&gt;exit: уведомить об успешном создании отчёта&lt;/font&gt;&lt;/span&gt;&lt;/div&gt;" style="rounded=1;whiteSpace=wrap;html=1;arcSize=40;fontColor=#000000;fillColor=#ffffc0;strokeColor=#ff0000;align=center;verticalAlign=middle;fontFamily=Helvetica;fontSize=12;" parent="1" vertex="1">
          <mxGeometry x="-40" y="370" width="120" height="60" as="geometry" />
        </mxCell>
        <mxCell id="4KBvr8sLMSTVqSEOLDnu-18" value="" style="edgeStyle=orthogonalEdgeStyle;html=1;verticalAlign=bottom;endArrow=open;endSize=8;strokeColor=#ff0000;rounded=0;fontFamily=Helvetica;fontSize=12;fontColor=default;exitX=1;exitY=0.5;exitDx=0;exitDy=0;entryX=0.5;entryY=0;entryDx=0;entryDy=0;" parent="1" source="4KBvr8sLMSTVqSEOLDnu-15" target="4KBvr8sLMSTVqSEOLDnu-16" edge="1">
          <mxGeometry relative="1" as="geometry">
            <mxPoint x="-530" y="430" as="targetPoint" />
            <mxPoint x="-530" y="370" as="sourcePoint" />
          </mxGeometry>
        </mxCell>
        <mxCell id="4KBvr8sLMSTVqSEOLDnu-19" value="" style="edgeStyle=orthogonalEdgeStyle;html=1;verticalAlign=bottom;endArrow=open;endSize=8;strokeColor=#ff0000;rounded=0;fontFamily=Helvetica;fontSize=12;fontColor=default;exitX=0.902;exitY=0.457;exitDx=0;exitDy=0;exitPerimeter=0;entryX=0.5;entryY=0;entryDx=0;entryDy=0;" parent="1" source="4KBvr8sLMSTVqSEOLDnu-12" target="4KBvr8sLMSTVqSEOLDnu-15" edge="1">
          <mxGeometry relative="1" as="geometry">
            <mxPoint x="-520" y="440" as="targetPoint" />
            <mxPoint x="-520" y="380" as="sourcePoint" />
            <Array as="points">
              <mxPoint x="-250" y="198" />
            </Array>
          </mxGeometry>
        </mxCell>
        <mxCell id="4KBvr8sLMSTVqSEOLDnu-20" value="" style="edgeStyle=orthogonalEdgeStyle;html=1;verticalAlign=bottom;endArrow=open;endSize=8;strokeColor=#ff0000;rounded=0;fontFamily=Helvetica;fontSize=12;fontColor=default;exitX=1;exitY=0.5;exitDx=0;exitDy=0;entryX=0.5;entryY=0;entryDx=0;entryDy=0;" parent="1" source="4KBvr8sLMSTVqSEOLDnu-16" target="4KBvr8sLMSTVqSEOLDnu-17" edge="1">
          <mxGeometry relative="1" as="geometry">
            <mxPoint x="-510" y="450" as="targetPoint" />
            <mxPoint x="-510" y="390" as="sourcePoint" />
          </mxGeometry>
        </mxCell>
        <mxCell id="4KBvr8sLMSTVqSEOLDnu-21" value="" style="edgeStyle=orthogonalEdgeStyle;html=1;verticalAlign=bottom;endArrow=open;endSize=8;strokeColor=#ff0000;rounded=0;fontFamily=Helvetica;fontSize=12;fontColor=default;exitX=0.5;exitY=1;exitDx=0;exitDy=0;entryX=0.5;entryY=1;entryDx=0;entryDy=0;" parent="1" source="4KBvr8sLMSTVqSEOLDnu-16" target="4KBvr8sLMSTVqSEOLDnu-13" edge="1">
          <mxGeometry relative="1" as="geometry">
            <mxPoint x="-500" y="460" as="targetPoint" />
            <mxPoint x="-500" y="400" as="sourcePoint" />
            <Array as="points">
              <mxPoint x="-120" y="380" />
              <mxPoint x="-380" y="380" />
            </Array>
          </mxGeometry>
        </mxCell>
        <mxCell id="4KBvr8sLMSTVqSEOLDnu-24" value="" style="edgeStyle=orthogonalEdgeStyle;html=1;verticalAlign=bottom;endArrow=open;endSize=8;strokeColor=#ff0000;rounded=0;fontFamily=Helvetica;fontSize=12;fontColor=default;exitX=0;exitY=0.5;exitDx=0;exitDy=0;entryX=0;entryY=0.5;entryDx=0;entryDy=0;" parent="1" source="4KBvr8sLMSTVqSEOLDnu-13" target="4KBvr8sLMSTVqSEOLDnu-11" edge="1">
          <mxGeometry relative="1" as="geometry">
            <mxPoint x="-470" y="490" as="targetPoint" />
            <mxPoint x="-470" y="430" as="sourcePoint" />
          </mxGeometry>
        </mxCell>
        <mxCell id="4KBvr8sLMSTVqSEOLDnu-26" value="" style="edgeStyle=orthogonalEdgeStyle;html=1;verticalAlign=bottom;endArrow=open;endSize=8;strokeColor=#ff0000;rounded=0;fontFamily=Helvetica;fontSize=12;fontColor=default;exitX=0;exitY=0.5;exitDx=0;exitDy=0;entryX=0.5;entryY=0;entryDx=0;entryDy=0;" parent="1" source="4KBvr8sLMSTVqSEOLDnu-17" target="4KBvr8sLMSTVqSEOLDnu-11" edge="1">
          <mxGeometry relative="1" as="geometry">
            <mxPoint x="-370" y="370" as="targetPoint" />
            <mxPoint x="-110" y="370" as="sourcePoint" />
            <Array as="points">
              <mxPoint x="-170" y="400" />
            </Array>
          </mxGeometry>
        </mxCell>
        <mxCell id="4KBvr8sLMSTVqSEOLDnu-27" value="&lt;font style=&quot;font-size: 7px;&quot;&gt;Пользователь получил отчёт, но ничего с ним не сделал&lt;/font&gt;" style="shape=note;whiteSpace=wrap;html=1;backgroundOutline=1;darkOpacity=0.05;strokeColor=default;align=center;verticalAlign=middle;fontFamily=Helvetica;fontSize=12;fontColor=default;fillColor=default;size=10;" parent="1" vertex="1">
          <mxGeometry x="-350" y="400" width="120" height="40" as="geometry" />
        </mxCell>
        <mxCell id="4KBvr8sLMSTVqSEOLDnu-28" value="" style="endArrow=none;dashed=1;html=1;rounded=0;fontFamily=Helvetica;fontSize=12;fontColor=default;entryX=0;entryY=0;entryDx=120;entryDy=25;entryPerimeter=0;" parent="1" target="4KBvr8sLMSTVqSEOLDnu-27" edge="1">
          <mxGeometry width="50" height="50" relative="1" as="geometry">
            <mxPoint x="-170" y="400" as="sourcePoint" />
            <mxPoint x="-380" y="433" as="targetPoint" />
          </mxGeometry>
        </mxCell>
        <mxCell id="4KBvr8sLMSTVqSEOLDnu-29" value="&lt;div style=&quot;&quot;&gt;&lt;span style=&quot;font-size: 7px; background-color: initial;&quot;&gt;Отчёт скачан&lt;/span&gt;&lt;/div&gt;&lt;font style=&quot;font-size: 7px;&quot;&gt;&lt;div style=&quot;text-align: justify;&quot;&gt;&lt;span style=&quot;background-color: initial;&quot;&gt;entry: Открывается файл отчёта&lt;/span&gt;&lt;/div&gt;&lt;div style=&quot;text-align: justify;&quot;&gt;&lt;span style=&quot;background-color: initial;&quot;&gt;do: Загрузка файла на устройство&lt;/span&gt;&lt;/div&gt;&lt;div style=&quot;text-align: justify;&quot;&gt;&lt;span style=&quot;background-color: initial;&quot;&gt;exit: Уведомить об успешном скачивании отчёта&lt;/span&gt;&lt;/div&gt;&lt;/font&gt;" style="rounded=1;whiteSpace=wrap;html=1;arcSize=40;fontColor=#000000;fillColor=#ffffc0;strokeColor=#ff0000;align=center;verticalAlign=middle;fontFamily=Helvetica;fontSize=12;" parent="1" vertex="1">
          <mxGeometry x="-40" y="460" width="120" height="60" as="geometry" />
        </mxCell>
        <mxCell id="4KBvr8sLMSTVqSEOLDnu-31" value="" style="edgeStyle=orthogonalEdgeStyle;html=1;verticalAlign=bottom;endArrow=open;endSize=8;strokeColor=#ff0000;rounded=0;fontFamily=Helvetica;fontSize=12;fontColor=default;exitX=0.5;exitY=1;exitDx=0;exitDy=0;" parent="1" source="4KBvr8sLMSTVqSEOLDnu-17" target="4KBvr8sLMSTVqSEOLDnu-29" edge="1">
          <mxGeometry relative="1" as="geometry">
            <mxPoint x="30" y="390" as="targetPoint" />
            <mxPoint x="-50" y="350" as="sourcePoint" />
          </mxGeometry>
        </mxCell>
        <mxCell id="4KBvr8sLMSTVqSEOLDnu-32" value="&lt;font style=&quot;font-size: 7px;&quot;&gt;Пользователь скачал отчёт&lt;/font&gt;" style="shape=note;whiteSpace=wrap;html=1;backgroundOutline=1;darkOpacity=0.05;strokeColor=default;align=center;verticalAlign=middle;fontFamily=Helvetica;fontSize=12;fontColor=default;fillColor=default;size=10;" parent="1" vertex="1">
          <mxGeometry x="100" y="420" width="120" height="40" as="geometry" />
        </mxCell>
        <mxCell id="4KBvr8sLMSTVqSEOLDnu-33" value="" style="endArrow=none;dashed=1;html=1;rounded=0;fontFamily=Helvetica;fontSize=12;fontColor=default;entryX=0;entryY=0.5;entryDx=0;entryDy=0;entryPerimeter=0;" parent="1" target="4KBvr8sLMSTVqSEOLDnu-32" edge="1">
          <mxGeometry width="50" height="50" relative="1" as="geometry">
            <mxPoint x="20" y="440" as="sourcePoint" />
            <mxPoint x="70" y="453" as="targetPoint" />
          </mxGeometry>
        </mxCell>
        <mxCell id="4KBvr8sLMSTVqSEOLDnu-34" value="" style="edgeStyle=orthogonalEdgeStyle;html=1;verticalAlign=bottom;endArrow=open;endSize=8;strokeColor=#ff0000;rounded=0;fontFamily=Helvetica;fontSize=12;fontColor=default;exitX=0.5;exitY=1;exitDx=0;exitDy=0;entryX=1;entryY=0.5;entryDx=0;entryDy=0;" parent="1" source="4KBvr8sLMSTVqSEOLDnu-29" target="4KBvr8sLMSTVqSEOLDnu-11" edge="1">
          <mxGeometry relative="1" as="geometry">
            <mxPoint x="30" y="470" as="targetPoint" />
            <mxPoint x="30" y="430" as="sourcePoint" />
          </mxGeometry>
        </mxCell>
      </root>
    </mxGraphModel>
  </diagram>
</mxfile>
